<?xml version="1.0" standalone="no"?>
<!DOCTYPE svg PUBLIC "-//W3C//DTD SVG 20010904//EN"
 "http://www.w3.org/TR/2001/REC-SVG-20010904/DTD/svg10.dtd">
<svg version="1.0" xmlns="http://www.w3.org/2000/svg"
 width="260.000000pt" height="260.000000pt" viewBox="0 0 260.000000 260.000000"
 preserveAspectRatio="xMidYMid meet">
<metadata>
Created by potrace 1.11, written by Peter Selinger 2001-2013
</metadata>
<g transform="translate(0.000000,260.000000) scale(0.100000,-0.100000)"
fill="#000000" stroke="none">
<path d="M0 1300 l0 -1300 1300 0 1300 0 0 1300 0 1300 -1300 0 -1300 0 0
-1300z m682 718 l3 -192 180 192 180 192 130 0 130 0 -120 -122 c-66 -68 -153
-157 -193 -199 l-73 -75 205 -280 204 -279 -121 -3 c-66 -1 -126 -1 -132 2 -7
2 -77 97 -156 210 l-144 206 -47 -49 -48 -50 0 -160 0 -161 -100 0 -100 0 0
480 0 480 100 0 100 0 2 -192z m1448 107 l0 -85 -252 -2 -253 -3 -3 -97 -3
-98 236 0 235 0 0 -85 0 -85 -235 0 -236 0 3 -122 3 -123 263 -3 262 -2 0 -85
0 -85 -362 2 -363 3 -3 465 c-1 256 0 471 3 478 3 9 84 12 355 12 l350 0 0
-85z m-1149 -1340 c71 -203 129 -376 129 -383 0 -10 -21 -12 -86 -10 l-86 3
-25 78 -24 78 -141 -3 -142 -3 -25 -77 -25 -78 -83 0 c-55 0 -83 4 -83 11 0 9
218 624 259 732 l11 28 96 -3 96 -3 129 -370z m744 356 c78 -36 125 -111 125
-199 0 -60 -34 -129 -76 -158 l-32 -21 33 -26 c40 -32 55 -89 55 -211 0 -62 4
-87 15 -96 8 -7 15 -19 15 -26 0 -11 -20 -14 -89 -14 -105 0 -99 -8 -108 148
-8 146 -9 146 -162 150 l-121 4 0 -151 0 -151 -80 0 -80 0 0 385 0 385 233 0
c204 0 237 -3 272 -19z m415 -366 l0 -386 -82 3 -83 3 -3 383 -2 382 85 0 85
0 0 -385z"/>
<path d="M746 960 c-12 -29 -86 -254 -86 -262 0 -4 41 -8 90 -8 l90 0 -6 24
c-23 92 -82 259 -88 246z"/>
<path d="M1380 931 l0 -101 124 0 c117 0 127 2 152 23 23 20 27 32 27 71 0 38
-5 53 -27 74 -25 26 -31 27 -151 31 l-125 3 0 -101z"/>
</g>
</svg>
